<svg xmlns="http://www.w3.org/2000/svg" width="22" height="21" fill="none"><path fill="#081420" fill-rule="evenodd" d="M21.633 12.481v7.88h-4.601v-7.362c0-1.84-.633-3.106-2.301-3.106-1.265 0-2.013.863-2.358 1.668-.115.287-.172.69-.172 1.093v7.706H7.6s.057-12.48 0-13.745h4.6V8.57s0 .058-.057.058h.057V8.57c.633-.92 1.668-2.3 4.141-2.3 2.991 0 5.291 2.013 5.291 6.211ZM2.883.001C1.33.001.295 1.036.295 2.359c0 1.323.978 2.358 2.53 2.358h.058c1.61 0 2.588-1.035 2.588-2.358C5.414 1.036 4.436.001 2.883.001ZM.526 20.361h4.543V6.614H.526V20.36Z" clip-rule="evenodd"/></svg>