<svg xmlns="http://www.w3.org/2000/svg" width="22" height="19" fill="none"><path fill="#6C5FBC" fill-rule="evenodd" d="M21.615 2.826c-.803.351-1.606.602-2.51.703.904-.552 1.607-1.406 1.908-2.41a9.237 9.237 0 0 1-2.761 1.054A4.437 4.437 0 0 0 15.039.768a4.371 4.371 0 0 0-4.368 4.367c0 .352.05.703.1 1.004-3.665-.2-6.878-1.907-9.037-4.568a4.17 4.17 0 0 0-.602 2.209A4.39 4.39 0 0 0 3.09 7.445c-.703 0-1.406-.201-2.008-.552v.05c0 2.108 1.506 3.916 3.514 4.317-.351.1-.753.15-1.155.15-.301 0-.552-.05-.803-.1.552 1.758 2.159 3.013 4.117 3.063-1.506 1.155-3.364 1.858-5.422 1.858-.352 0-.703 0-1.055-.05 1.958 1.255 4.218 1.957 6.728 1.957 8.083 0 12.45-6.677 12.45-12.45v-.553a9.392 9.392 0 0 0 2.16-2.309Z" clip-rule="evenodd"/></svg>