<svg xmlns="http://www.w3.org/2000/svg" width="1440" height="221" fill="none"><path fill="#5C4EAE" d="M0 0h1440v220.5H0z"/><mask id="a" width="1440" height="221" x="0" y="0" maskUnits="userSpaceOnUse" style="mask-type:alpha"><path fill="#201F1F" d="M0 0h1440v220.5H0z"/></mask><g stroke="#A596FF" stroke-linecap="round" mask="url(#a)"><path stroke-width="4.449" d="M1562.55-80.845c-23.48 2.192-48.98 2.536-71.86 7.662-22.39 5.016-45.96 14.116-65.66 23.727-36.29 17.71-54.88 42.505-71.75 72.086-27.83 48.817-37.91 99.448-38.34 152.493-.29 35.116 1.06 69.874 4.73 104.875 1.11 10.686.56 22.902 8.4 32.13" opacity=".2"/><path stroke-width="4.449" d="M1610-55.636c-24.18 2.258-50.44 2.613-74.01 7.893-23.05 5.168-47.33 14.542-67.62 24.443-37.38 18.246-56.53 43.789-73.9 74.262-28.67 50.291-39.04 102.451-39.49 157.097-.3 36.176 1.09 71.983 4.87 108.041 1.15 11.009.57 23.594 8.65 33.1" opacity=".2"/><path stroke-width="4.017" d="M369.68 577.878c5.371-31.465 13.205-61.061 11.198-94.988-1.434-24.232-7.435-48.081-18.973-70.836-21.512-42.428-49.633-82.874-83.065-115.102-34.161-32.931-67.698-68.763-106.274-94.052-35.866-23.513-74.12-42.938-109.088-68.49C4.89 91.598-36.578 23.28-71.774-42.288c-18.62-34.688-37.088-69.613-54.915-104.713-11.186-22.026-20.584-45.646-34.339-66.114" opacity=".2"/><path stroke-width="4.017" d="M413.34 566.6c5.794-33.994 14.249-65.967 12.075-102.623-1.554-26.18-8.041-51.947-20.508-76.535-23.245-45.842-53.627-89.546-89.744-124.372-36.905-35.586-73.136-74.306-114.808-101.637-38.745-25.41-80.067-46.405-117.841-74.018C19.221 41.148-25.583-32.671-63.613-103.518c-20.12-37.481-40.074-75.217-59.336-113.142-12.088-23.8-22.243-49.32-37.104-71.437" opacity=".2"/></g></svg>