<svg xmlns="http://www.w3.org/2000/svg" width="112" height="43" fill="none"><rect width="42.267" height="37.337" x="3.674" y="4.979" fill="#6C5FBC" rx="6.97"/><rect width="40.252" height="35.322" x="1.008" y="1.008" fill="#DBD9EE" stroke="#6C5FBC" stroke-width="2.015" rx="5.962"/><path stroke="#6C5FBC" stroke-linecap="round" stroke-linejoin="round" stroke-width="2.084" d="M32.624 12.052 9.722 11.95M32.61 16.637l-5.094-.023c-2.106-.01-3.81-2.071-3.803-4.602.008-2.531 1.725-4.578 3.831-4.569l5.094.023M17.361 26.722l-6.654-.074c-.546-.002-1.002-.54-1.013-1.195l-.044-1.728c-.01-.684.45-1.263 1.02-1.26l6.58.073.111 4.184ZM27.813 29.21l-9.405-.115c-.546-.003-1.003-.54-1.013-1.196l-.12-5.375 15.28.187.01.685c.077 3.246-2.062 5.857-4.752 5.815Z"/><path fill="#6C5FBC" d="M69.308 21.646c0 .423-.028.805-.085 1.143h-8.576c.07.847.367 1.51.89 1.99.522.48 1.164.72 1.927.72 1.1 0 1.884-.472 2.35-1.418h3.198c-.34 1.13-.989 2.061-1.949 2.795-.96.72-2.138 1.08-3.536 1.08-1.13 0-2.146-.247-3.05-.74a5.455 5.455 0 0 1-2.096-2.14c-.494-.917-.74-1.976-.74-3.176 0-1.214.246-2.28.74-3.198a5.171 5.171 0 0 1 2.076-2.117c.889-.494 1.913-.741 3.07-.741 1.115 0 2.11.24 2.986.72a4.967 4.967 0 0 1 2.054 2.054c.494.875.741 1.884.741 3.028Zm-3.07-.847c-.014-.762-.29-1.37-.826-1.821-.537-.466-1.193-.7-1.97-.7-.734 0-1.355.227-1.863.678-.494.438-.798 1.052-.91 1.843h5.569Zm4.472 1.059c0-1.186.233-2.238.698-3.156.48-.917 1.123-1.623 1.927-2.117.82-.494 1.73-.741 2.732-.741.875 0 1.638.176 2.287.529.664.353 1.193.798 1.588 1.334v-1.673h2.986v11.732h-2.986V26.05c-.38.551-.91 1.01-1.588 1.377-.663.353-1.433.53-2.308.53a5.039 5.039 0 0 1-2.71-.763c-.805-.508-1.448-1.221-1.928-2.139-.465-.932-.698-1.997-.698-3.197Zm9.232.042c0-.72-.14-1.334-.423-1.842a2.898 2.898 0 0 0-1.144-1.186 2.997 2.997 0 0 0-1.546-.424c-.55 0-1.058.134-1.524.403-.466.268-.847.663-1.144 1.186-.282.508-.423 1.115-.423 1.82 0 .706.14 1.328.423 1.864.297.522.678.925 1.144 1.207.48.282.988.424 1.524.424.551 0 1.066-.134 1.546-.403a3.08 3.08 0 0 0 1.144-1.186c.282-.522.423-1.143.423-1.863Zm9.333-3.43v5.675c0 .395.092.684.275.868.198.17.523.254.975.254H91.9v2.499h-1.864c-2.498 0-3.748-1.214-3.748-3.643V18.47h-1.397v-2.435h1.397v-2.9h2.986v2.9h2.626v2.436h-2.626Zm7.723-6.374v15.67h-2.965v-15.67h2.965Zm14.152 3.938-7.263 17.28h-3.155l2.541-5.845-4.701-11.435h3.324l3.028 8.195 3.071-8.195h3.155Z"/></svg>