<svg xmlns="http://www.w3.org/2000/svg" width="893" height="280" fill="none"><g opacity=".25"><path stroke="#1C186C" stroke-linecap="round" stroke-linejoin="round" stroke-width="4.64" d="M147.318 140.952a21.236 21.236 0 0 1-15.008 6.014c-5.797-.043-11.086-2.376-15.028-6.185"/><path stroke="#1C186C" stroke-linecap="round" stroke-linejoin="round" stroke-width="4.64" d="M118.22 149.619c4.196 2.782 9.016 4.366 14.129 4.409 5.992.042 11.554-2.055 16.179-5.693 1.874-1.477 2.401-4.366 1.191-6.592l-1.269-2.333-5.25-9.502-7.24-13.14c-1.698-3.082-5.64-3.125-7.319-.086l-12.49 22.557-1.23 2.226c-1.21 2.204-.663 5.136 1.249 6.634.644.557 1.347 1.049 2.05 1.52Z"/><path fill="#201D67" d="M125.344 136.521a1.75 1.75 0 0 0-1.464 0 1.992 1.992 0 0 0-.644.45 2.31 2.31 0 0 0-.566 1.498c0 .578.195 1.091.566 1.498.371.407.839.621 1.366.621.527 0 .995-.214 1.366-.621.371-.407.566-.942.566-1.498a2.31 2.31 0 0 0-.566-1.498 1.451 1.451 0 0 0-.624-.45ZM133.033 138.619a1.75 1.75 0 0 0-1.464 0 2.23 2.23 0 0 0-.644.449 2.315 2.315 0 0 0-.566 1.498c0 .578.196 1.092.566 1.498.371.407.84.621 1.366.621.527 0 .996-.214 1.367-.621.37-.406.566-.92.566-1.498 0-.556-.215-1.091-.566-1.498a1.733 1.733 0 0 0-.625-.449ZM141.387 136.949a1.868 1.868 0 0 0-2.732 0 2.315 2.315 0 0 0-.566 1.498c0 .578.195 1.091.566 1.498.371.407.839.621 1.366.621.254 0 .507-.064.722-.171.234-.107.449-.257.644-.45.371-.407.566-.92.566-1.498a2.592 2.592 0 0 0-.566-1.498ZM137.933 129.201a2.268 2.268 0 0 0-.41-.706 1.868 1.868 0 0 0-2.732 0 2.23 2.23 0 0 0-.41.706 2.28 2.28 0 0 0-.156.792c0 .279.058.557.156.792.097.257.234.492.41.706.37.407.839.621 1.366.621.253 0 .507-.064.722-.171.234-.107.449-.257.644-.45.371-.406.566-.92.566-1.498 0-.256-.059-.535-.156-.792ZM130.224 129.201a2.526 2.526 0 0 0-.41-.706c-.742-.792-2.03-.792-2.732 0a2.23 2.23 0 0 0-.41.706 2.28 2.28 0 0 0-.156.792c0 .578.195 1.092.566 1.498.195.193.409.343.644.45.234.107.488.171.741.171.527 0 .996-.214 1.366-.621.176-.214.313-.449.41-.706.117-.257.156-.535.156-.792-.019-.256-.058-.535-.175-.792ZM130.945 123.06c.371.407.839.621 1.366.621.254 0 .507-.065.722-.172a2.23 2.23 0 0 0 .644-.449c.176-.214.312-.449.41-.706.098-.257.156-.535.156-.792 0-.578-.215-1.092-.566-1.498-.546-.578-1.386-.792-2.108-.45a2.003 2.003 0 0 0-.644.45 2.31 2.31 0 0 0-.566 1.498c0 .278.059.556.157.792.117.257.253.492.429.706Z"/><path stroke="#1C186C" stroke-linecap="round" stroke-linejoin="round" stroke-width="4.64" d="M612.854 46.314c-2.361 5.479-7.435 9.267-13.329 9.267-8.138 0-14.754-7.255-14.754-16.18 0-7.94 5.23-14.553 12.139-15.923.234 4.816 3.454 8.775 7.669 9.653a13.337 13.337 0 0 0-.136 1.776c0 5.607 3.61 10.294 8.411 11.407Z"/><path fill="#201D67" d="M593.416 30.584c-1.19 0-2.166 1.07-2.166 2.376 0 1.306.976 2.376 2.166 2.376 1.191 0 2.167-1.07 2.167-2.376 0-1.327-.976-2.376-2.167-2.376ZM588.635 18.193c-1.19 0-2.166 1.07-2.166 2.375 0 1.306.976 2.376 2.166 2.376 1.191 0 2.166-1.07 2.166-2.376-.019-1.327-.975-2.375-2.166-2.375ZM599.72 37.881c-1.191 0-2.166 1.07-2.166 2.376 0 1.305.975 2.376 2.166 2.376 1.19 0 2.166-1.07 2.166-2.376 0-1.327-.976-2.376-2.166-2.376Z"/><path stroke="#1C186C" stroke-linecap="round" stroke-linejoin="round" stroke-width="4.64" d="M601.594 47.406s-.41.257-.936.599c-.508.321-.937.6-.937.6s.41-.258.937-.6c.507-.342.936-.6.936-.6ZM591.659 41.264s.449.214.995.47c.547.257.996.471.996.471s-.449-.214-.996-.47c-.546-.257-.995-.471-.995-.471ZM581.979 27.802s.352-.363.781-.813c.429-.45.781-.813.781-.813s-.352.364-.781.813c-.429.45-.781.813-.781.813Z"/><path stroke="#1C186C" stroke-linecap="round" stroke-linejoin="round" stroke-width="4.64" d="M580.007 39.723c-2.029-2.525-3.259-5.821-3.259-9.438 0-7.897 5.835-14.296 13.037-14.296 5.816 0 10.753 4.173 12.432 9.951M211.54 204.578a7.029 7.029 0 0 0-3.791.127 7.577 7.577 0 0 0-3.274 2.098 2.483 2.483 0 0 0-.604 1.638c0 .611.217 1.198.604 1.637l2.225 2.525M226.099 220.821a9.364 9.364 0 0 1-.152 4.199 8.765 8.765 0 0 1-1.956 3.613 2.09 2.09 0 0 1-.68.502 1.93 1.93 0 0 1-1.607 0 2.098 2.098 0 0 1-.679-.502l-2.264-2.526M208.242 226.621a9.347 9.347 0 0 1 .635 7.913 8.526 8.526 0 0 1-1.689 2.745.705.705 0 0 1-.497.21.707.707 0 0 1-.498-.21 7.986 7.986 0 0 1-1.503-2.461 7.705 7.705 0 0 1-.663-2.14 6.968 6.968 0 0 1 0-1.37c.35-2.081 1.318-3.977 2.751-5.393-1.328 1.534-3.074 2.555-4.976 2.911a6.063 6.063 0 0 1-1.249 0 6.449 6.449 0 0 1-1.952-.771 7.32 7.32 0 0 1-2.225-1.798.859.859 0 0 1-.191-.545.86.86 0 0 1 .191-.546c1.461-1.566 3.422-2.442 5.465-2.44a7.327 7.327 0 0 1 4.215 1.391"/><path stroke="#1C186C" stroke-linecap="round" stroke-linejoin="round" stroke-width="4.64" d="M230.628 199.848a4.592 4.592 0 0 0-.781-.771 6.795 6.795 0 0 0-2.638-1.117 6.548 6.548 0 0 0-2.827.09 17.516 17.516 0 0 0-6.245 2.333c-3.644 1.93-6.706 4.968-8.821 8.753-1.875 3.805-2.936 8.027-3.103 12.348 0 .3-.332 2.547-.117 2.697l2.166 2.44c.137.235 2.166 0 2.44-.107 3.959-.114 7.841-1.235 11.338-3.275 3.47-2.247 6.265-5.557 8.041-9.523 1.718-3.917 3.669-10.145.547-13.868Z"/><path stroke="#1C186C" stroke-linecap="round" stroke-linejoin="round" stroke-width="4.64" d="M217.042 202.331c.792 2.92 2.218 5.586 4.157 7.768 1.947 2.177 4.353 3.794 7.006 4.709"/><path fill="#201D67" d="M225.475 202.394a1.945 1.945 0 0 0-.642-.484 1.796 1.796 0 0 0-1.527 0 1.952 1.952 0 0 0-.641.484 2.216 2.216 0 0 0-.514 1.097c-.07.413-.027.839.123 1.226.149.386.4.716.719.947a1.83 1.83 0 0 0 1.077.356c.383 0 .757-.124 1.077-.356.319-.231.569-.561.719-.947.15-.387.192-.813.123-1.226a2.224 2.224 0 0 0-.514-1.097Z"/><path stroke="#1C186C" stroke-linecap="round" stroke-linejoin="round" stroke-width="4.64" d="m409.182 215.428 8.021 24.205 8.021-24.205"/><path stroke="#1C186C" stroke-linecap="round" stroke-linejoin="round" stroke-width="4.64" d="M429.244 214.337c-.332 0-.624.021-.898.064-2.146.385-2.439 2.14-5.132 2.14-3.025 0-3.025-2.204-6.011-2.204-3.025 0-3.025 2.204-6.011 2.204-2.694 0-2.967-1.733-5.133-2.14a5.565 5.565 0 0 0-.898-.064"/><path stroke="#1C186C" stroke-linecap="round" stroke-linejoin="round" stroke-width="4.64" d="M427.235 211.041c0 1.156-.157 2.312-.488 3.36-1.854.386-2.089 2.141-4.392 2.141-2.595 0-2.595-2.205-5.152-2.205-2.595 0-2.595 2.205-5.152 2.205-2.303 0-2.557-1.734-4.391-2.141a11.908 11.908 0 0 1-.488-3.36c0-6.078 4.489-11 10.031-11 5.543 0 10.032 4.922 10.032 11ZM427.235 217.634h-20.063M615.683 218.551h-14.442v2.269h14.442v-2.269ZM624.427 200.446c1.327 0 2.342 1.37 2.029 2.782-2.049 8.797-9.328 15.303-17.993 15.303-8.666 0-15.945-6.506-17.994-15.303-.332-1.412.683-2.782 2.029-2.782h31.929v0ZM600.675 200.446c2.274 0 4.117-2.022 4.117-4.516s-1.843-4.515-4.117-4.515c-2.275 0-4.118 2.021-4.118 4.515 0 2.494 1.843 4.516 4.118 4.516ZM616.249 200.105c2.274 0 4.118-2.022 4.118-4.516s-1.844-4.516-4.118-4.516c-2.275 0-4.118 2.022-4.118 4.516s1.843 4.516 4.118 4.516Z"/><path stroke="#1C186C" stroke-linecap="round" stroke-linejoin="round" stroke-width="4.64" d="M609.107 200.126c1.714 0 3.103-1.524 3.103-3.403s-1.389-3.403-3.103-3.403c-1.714 0-3.103 1.524-3.103 3.403s1.389 3.403 3.103 3.403ZM598.431 191.715l-6.479-7.106M593.006 207.189h30.914M532.349 112.83H497.22c0 3.552 2.615 6.42 5.855 6.42h23.419c3.24 0 5.855-2.868 5.855-6.42ZM514.785 93.568c-8.626 0-15.613 7.662-15.613 17.122v2.14h31.226v-2.14c0-9.46-6.987-17.122-15.613-17.122Z"/><path fill="#201D67" d="M514.784 95.174c1.887 0 3.416-1.677 3.416-3.746 0-2.068-1.529-3.745-3.416-3.745-1.886 0-3.415 1.677-3.415 3.745 0 2.069 1.529 3.746 3.415 3.746Z"/><path stroke="#1C186C" stroke-linecap="round" stroke-linejoin="round" stroke-width="4.64" d="M392.257 82.97c5.406.364 10.812 2.953 15.086 7.704 4.235 4.709 6.557 10.701 6.909 16.693"/><path stroke="#1C186C" stroke-linecap="round" stroke-linejoin="round" stroke-width="4.64" d="m416.474 108.758-2.4.642-24.357 6.528c-3.278.877-6.147-2.333-5.327-5.971l1.717-7.705.117-.492 1.503-6.699.136-.642 2.537-11.236.625-2.739c.586-2.632 2.908-4.323 5.289-3.895 5.855 1.049 11.358 4.002 15.749 8.882 4.372 4.836 7.007 10.936 7.963 17.42.39 2.654-1.171 5.265-3.552 5.907Z"/><path stroke="#1C186C" stroke-linecap="round" stroke-linejoin="round" stroke-width="4.64" d="M401.76 101.909c1.725 0 3.123-1.552 3.123-3.467s-1.398-3.467-3.123-3.467c-1.724 0-3.122 1.552-3.122 3.467s1.398 3.467 3.122 3.467ZM390.205 100.605c-1.073 1.198-2.615 1.583-3.981 1.113l1.951-8.732a4.1 4.1 0 0 1 2.03 1.22c1.6 1.776 1.6 4.644 0 6.399ZM392.665 112.803c-.293-1.241 0-2.611.858-3.574 1.308-1.455 3.416-1.455 4.723 0 .43.471.723 1.049.859 1.669M314.062 114.776l-19.984 21.915c-2.127 2.333-2.127 6.1 0 8.432 2.127 2.333 5.562 2.333 7.689 0l19.985-21.915c2.127-2.333 2.127-6.099 0-8.432s-5.562-2.333-7.69 0Z"/><path stroke="#1C186C" stroke-linecap="round" stroke-linejoin="round" stroke-width="4.64" d="M298.273 139.602c2.303-2.526 3.123-1.627 5.445-4.152 2.303-2.525 1.484-3.424 3.787-5.971 2.303-2.526 3.142-1.627 5.445-4.152 2.303-2.525 1.483-3.446 3.786-5.971M307.153 112.251l-15.379 16.864c-2.557 2.804-2.557 7.32 0 10.123l24.59-26.966c-2.537-2.825-6.674-2.825-9.211-.021ZM308.676 147.648l15.378-16.864c2.557-2.804 2.557-7.319 0-10.123l-24.59 26.966c2.537 2.825 6.674 2.825 9.212.021ZM210.333 66.217h-19.517c-3.473 0-6.284-3.082-6.284-6.891v-4.11h32.085v4.11c0 3.81-2.81 6.891-6.284 6.891ZM215.622 48.624h-30.094c-1.659 0-3.006 1.477-3.006 3.296 0 1.82 1.347 3.296 3.006 3.296h30.094c1.659 0 3.005-1.477 3.005-3.296 0-1.819-1.346-3.296-3.005-3.296Z"/><path stroke="#1C186C" stroke-linecap="round" stroke-linejoin="round" stroke-width="4.64" d="M201.609 31.033h-2.069c-8.294 0-15.008 7.362-15.008 16.457v1.135h32.085V47.49c0-9.095-6.714-16.457-15.008-16.457ZM184.317 55.752c.762.898 1.308 2.118 2.733 2.118 1.424 0 1.971-1.22 2.732-2.118M202.643 55.752c.761.898 1.307 2.118 2.732 2.118 1.444 0 1.99-1.22 2.752-2.118M214.566 57.849c-1.424 0-1.971-1.22-2.732-2.119M193.489 55.752c.761.898 1.308 2.118 2.733 2.118 1.424 0 1.971-1.22 2.732-2.118M704.556 96.01a21.237 21.237 0 0 1-15.008 6.013c-5.796-.043-11.085-2.376-15.027-6.185"/><path stroke="#1C186C" stroke-linecap="round" stroke-linejoin="round" stroke-width="4.64" d="M675.457 104.676c4.196 2.782 9.016 4.366 14.13 4.409 5.991.043 11.553-2.055 16.179-5.693 1.873-1.477 2.4-4.366 1.19-6.592l-1.268-2.332-5.25-9.503s-3.728-6.763-7.241-13.14c-1.698-3.082-5.64-3.125-7.318-.086l-12.491 22.557-1.229 2.226c-1.21 2.204-.664 5.136 1.249 6.634.644.557 1.346 1.049 2.049 1.52Z"/><path fill="#201D67" d="M682.58 91.579a1.75 1.75 0 0 0-1.464 0 2.008 2.008 0 0 0-.644.449 2.313 2.313 0 0 0-.566 1.498c0 .578.195 1.092.566 1.498.371.407.839.62 1.366.62.527 0 .996-.213 1.366-.62.371-.406.566-.942.566-1.498s-.214-1.091-.566-1.498a1.446 1.446 0 0 0-.624-.45ZM690.269 93.678a1.747 1.747 0 0 0-1.463 0 2.239 2.239 0 0 0-.644.449 2.308 2.308 0 0 0-.566 1.498c0 .578.195 1.092.566 1.498.37.407.839.62 1.366.62.527 0 .995-.213 1.366-.62.371-.406.566-.92.566-1.498 0-.556-.215-1.091-.566-1.498a1.738 1.738 0 0 0-.625-.45ZM698.623 92.007a1.868 1.868 0 0 0-2.732 0 2.313 2.313 0 0 0-.566 1.498c0 .577.195 1.091.566 1.498.371.406.839.62 1.366.62.254 0 .508-.064.722-.17.235-.108.449-.258.644-.45.371-.407.566-.92.566-1.498a2.591 2.591 0 0 0-.566-1.498ZM695.168 84.26a2.248 2.248 0 0 0-.41-.706 1.868 1.868 0 0 0-2.732 0 2.248 2.248 0 0 0-.41.707 2.298 2.298 0 0 0-.156.791c0 .279.059.557.156.792.098.257.234.493.41.707.371.406.839.62 1.366.62.254 0 .507-.064.722-.171a2.24 2.24 0 0 0 .644-.45c.371-.406.566-.92.566-1.498 0-.256-.058-.535-.156-.791ZM687.458 84.26a2.516 2.516 0 0 0-.41-.706c-.741-.791-2.029-.791-2.732 0a2.248 2.248 0 0 0-.41.707 2.298 2.298 0 0 0-.156.791c0 .578.195 1.092.566 1.498.195.193.41.343.644.45.234.107.488.171.742.171.527 0 .995-.214 1.366-.62a2.54 2.54 0 0 0 .41-.707c.117-.256.156-.535.156-.792-.02-.256-.059-.535-.176-.791ZM688.181 78.117c.371.407.839.62 1.366.62.254 0 .508-.063.722-.17.235-.107.449-.257.644-.45.176-.214.313-.45.41-.706.098-.257.156-.535.156-.792 0-.578-.214-1.091-.566-1.498-.546-.578-1.385-.792-2.107-.45a1.997 1.997 0 0 0-.644.45 2.308 2.308 0 0 0-.566 1.498c0 .278.058.556.156.792.117.257.254.492.429.706Z"/><path stroke="#1C186C" stroke-linecap="round" stroke-linejoin="round" stroke-width="4.64" d="M519.175 256.048c-2.362 5.479-7.436 9.267-13.33 9.267-8.138 0-14.754-7.255-14.754-16.179 0-7.94 5.23-14.553 12.139-15.923.234 4.815 3.454 8.775 7.67 9.652a13.338 13.338 0 0 0-.137 1.776c0 5.607 3.611 10.294 8.412 11.407Z"/><path fill="#201D67" d="M499.736 240.318c-1.191 0-2.167 1.07-2.167 2.375 0 1.306.976 2.376 2.167 2.376 1.19 0 2.166-1.07 2.166-2.376 0-1.326-.976-2.375-2.166-2.375ZM494.954 227.926c-1.19 0-2.166 1.07-2.166 2.375 0 1.306.976 2.376 2.166 2.376 1.191 0 2.167-1.07 2.167-2.376-.02-1.327-.976-2.375-2.167-2.375ZM506.039 247.617c-1.19 0-2.166 1.07-2.166 2.375 0 1.306.976 2.376 2.166 2.376 1.191 0 2.167-1.07 2.167-2.376 0-1.327-.976-2.375-2.167-2.375Z"/><path stroke="#1C186C" stroke-linecap="round" stroke-linejoin="round" stroke-width="4.64" d="M507.914 257.138s-.41.257-.937.599c-.508.321-.937.6-.937.6s.41-.257.937-.6c.507-.342.937-.599.937-.599ZM497.981 250.998s.449.214.996.47c.546.257.995.471.995.471s-.449-.214-.995-.471c-.547-.256-.996-.47-.996-.47ZM488.301 237.536s.351-.364.78-.813c.43-.45.781-.813.781-.813s-.351.363-.781.813c-.429.449-.78.813-.78.813Z"/><path stroke="#1C186C" stroke-linecap="round" stroke-linejoin="round" stroke-width="4.64" d="M486.33 249.457c-2.03-2.525-3.26-5.821-3.26-9.438 0-7.897 5.836-14.296 13.037-14.296 5.816 0 10.754 4.173 12.432 9.952M777.47 159.636a7.048 7.048 0 0 0-3.791.127 7.573 7.573 0 0 0-3.274 2.099 2.475 2.475 0 0 0-.604 1.637c0 .611.216 1.198.604 1.637l2.225 2.526M792.029 175.879a9.364 9.364 0 0 1-.153 4.199 8.769 8.769 0 0 1-1.955 3.613 2.09 2.09 0 0 1-.68.502 1.938 1.938 0 0 1-.803.176c-.276 0-.549-.06-.804-.176a2.09 2.09 0 0 1-.68-.502l-2.264-2.525M774.172 181.68a9.335 9.335 0 0 1 1.229 4.665 9.127 9.127 0 0 1-.594 3.247 8.52 8.52 0 0 1-1.689 2.746.707.707 0 0 1-.498.21.705.705 0 0 1-.497-.21 7.948 7.948 0 0 1-1.503-2.461 7.67 7.67 0 0 1-.664-2.141 7.116 7.116 0 0 1 0-1.369c.351-2.081 1.318-3.977 2.752-5.394-1.329 1.534-3.075 2.555-4.976 2.911a6.072 6.072 0 0 1-1.25 0 6.45 6.45 0 0 1-1.951-.77 7.336 7.336 0 0 1-2.225-1.798.863.863 0 0 1-.192-.546c0-.202.069-.396.192-.546 1.46-1.565 3.422-2.441 5.465-2.439a7.315 7.315 0 0 1 4.215 1.391"/><path stroke="#1C186C" stroke-linecap="round" stroke-linejoin="round" stroke-width="4.64" d="M796.557 154.906a4.544 4.544 0 0 0-.78-.77 6.795 6.795 0 0 0-2.638-1.117 6.547 6.547 0 0 0-2.827.089 17.54 17.54 0 0 0-6.245 2.333c-3.645 1.931-6.707 4.969-8.821 8.753-1.876 3.805-2.937 8.028-3.103 12.349 0 .3-.332 2.547-.118 2.697l2.167 2.439c.136.236 2.166 0 2.439-.107 3.96-.113 7.842-1.234 11.339-3.274 3.47-2.247 6.265-5.557 8.041-9.524 1.717-3.916 3.669-10.144.546-13.868Z"/><path stroke="#1C186C" stroke-linecap="round" stroke-linejoin="round" stroke-width="4.64" d="M782.975 157.389c.791 2.921 2.218 5.587 4.157 7.769 1.947 2.177 4.353 3.794 7.006 4.708"/><path fill="#201D67" d="M791.405 157.453a1.972 1.972 0 0 0-.642-.485 1.81 1.81 0 0 0-1.527 0c-.241.113-.46.278-.642.485a2.23 2.23 0 0 0-.514 1.096c-.069.413-.026.84.123 1.226.15.387.4.716.72.948.319.232.694.355 1.076.355.383 0 .758-.123 1.077-.355.32-.232.57-.561.72-.948.149-.386.192-.813.123-1.226a2.23 2.23 0 0 0-.514-1.096Z"/><path stroke="#1C186C" stroke-linecap="round" stroke-linejoin="round" stroke-width="4.64" d="M294.235 245.048c5.406.364 10.812 2.954 15.086 7.705 4.235 4.708 6.558 10.701 6.909 16.693"/><path stroke="#1C186C" stroke-linecap="round" stroke-linejoin="round" stroke-width="4.64" d="m318.453 270.837-2.401.642-24.356 6.527c-3.279.878-6.148-2.332-5.328-5.971l1.717-7.704.118-.492 1.502-6.699.137-.642 2.537-11.236.625-2.739c.585-2.633 2.907-4.323 5.288-3.895 5.855 1.048 11.359 4.002 15.75 8.881 4.372 4.837 7.006 10.936 7.963 17.421.39 2.654-1.171 5.265-3.552 5.907Z"/><path stroke="#1C186C" stroke-linecap="round" stroke-linejoin="round" stroke-width="4.64" d="M303.738 263.99c1.724 0 3.122-1.552 3.122-3.467s-1.398-3.467-3.122-3.467c-1.725 0-3.123 1.552-3.123 3.467s1.398 3.467 3.123 3.467ZM292.184 262.683c-1.073 1.198-2.615 1.584-3.981 1.113l1.952-8.732a4.1 4.1 0 0 1 2.029 1.22c1.601 1.776 1.601 4.644 0 6.399ZM294.643 274.883c-.292-1.241 0-2.611.859-3.574 1.308-1.456 3.415-1.456 4.723 0a3.64 3.64 0 0 1 .859 1.669M857.729 231.676c5.405.364 10.811 2.954 15.086 7.705 4.235 4.708 6.557 10.701 6.908 16.693"/><path stroke="#1C186C" stroke-linecap="round" stroke-linejoin="round" stroke-width="4.64" d="m881.948 257.466-2.401.642-24.356 6.527c-3.279.878-6.148-2.332-5.328-5.971l1.718-7.704.117-.492 1.502-6.699.137-.642 2.537-11.236.625-2.739c.585-2.633 2.908-4.323 5.289-3.895 5.854 1.048 11.358 4.002 15.749 8.881 4.372 4.837 7.006 10.936 7.963 17.421.39 2.654-1.171 5.265-3.552 5.907Z"/><path stroke="#1C186C" stroke-linecap="round" stroke-linejoin="round" stroke-width="4.64" d="M867.234 250.617c1.724 0 3.123-1.553 3.123-3.467 0-1.915-1.399-3.467-3.123-3.467-1.725 0-3.123 1.552-3.123 3.467 0 1.914 1.398 3.467 3.123 3.467ZM855.68 249.312c-1.074 1.199-2.616 1.584-3.982 1.113l1.952-8.732a4.107 4.107 0 0 1 2.03 1.22c1.6 1.777 1.6 4.644 0 6.399ZM858.138 261.511c-.292-1.242 0-2.611.859-3.574 1.308-1.456 3.415-1.456 4.723 0a3.64 3.64 0 0 1 .859 1.669M875.644 69.835 855.66 91.75c-2.127 2.332-2.127 6.1 0 8.432 2.127 2.333 5.562 2.333 7.689 0l19.985-21.915c2.127-2.333 2.127-6.1 0-8.432-2.127-2.333-5.562-2.333-7.69 0Z"/><path stroke="#1C186C" stroke-linecap="round" stroke-linejoin="round" stroke-width="4.64" d="M859.855 94.66c2.303-2.526 3.123-1.627 5.445-4.153 2.303-2.525 1.484-3.424 3.787-5.97 2.303-2.526 3.142-1.627 5.445-4.152 2.303-2.526 1.483-3.446 3.786-5.971M868.736 67.308l-15.379 16.865c-2.557 2.803-2.557 7.32 0 10.123l24.59-26.966c-2.537-2.825-6.674-2.825-9.211-.022ZM870.259 102.706l15.378-16.865c2.557-2.803 2.557-7.32 0-10.123l-24.59 26.966c2.537 2.825 6.674 2.825 9.212.022ZM116.655 275.953H97.139c-3.474 0-6.284-3.082-6.284-6.892v-4.109h32.084v4.109c0 3.81-2.81 6.892-6.284 6.892ZM121.943 258.36H91.849c-1.659 0-3.005 1.477-3.005 3.296 0 1.819 1.346 3.296 3.005 3.296h30.094c1.659 0 3.006-1.477 3.006-3.296 0-1.819-1.347-3.296-3.006-3.296ZM107.931 240.768h-2.069c-8.294 0-15.007 7.362-15.007 16.458v1.134h32.084v-1.134c0-9.096-6.713-16.458-15.008-16.458Z"/><path stroke="#1C186C" stroke-linecap="round" stroke-linejoin="round" stroke-width="4.64" d="M90.639 265.487c.76.899 1.307 2.119 2.732 2.119 1.425 0 1.971-1.22 2.732-2.119M108.965 265.487c.761.899 1.307 2.119 2.732 2.119 1.444 0 1.991-1.22 2.752-2.119M120.889 267.584c-1.424 0-1.971-1.22-2.732-2.119M99.811 265.487c.762.899 1.308 2.119 2.733 2.119 1.424 0 1.971-1.22 2.732-2.119M787.125 21.275h-19.517c-3.473 0-6.284-3.082-6.284-6.891v-4.11h32.085v4.11c0 3.809-2.811 6.89-6.284 6.89ZM792.414 3.682H762.32c-1.659 0-3.006 1.476-3.006 3.295 0 1.82 1.347 3.296 3.006 3.296h30.094c1.659 0 3.005-1.476 3.005-3.296 0-1.819-1.346-3.295-3.005-3.295ZM778.401-13.91h-2.069c-8.294 0-15.008 7.362-15.008 16.458v1.134h32.085V2.548c0-9.096-6.714-16.458-15.008-16.458Z"/><path stroke="#1C186C" stroke-linecap="round" stroke-linejoin="round" stroke-width="4.64" d="M761.111 10.808c.761.899 1.308 2.119 2.733 2.119 1.424 0 1.971-1.22 2.732-2.119M779.437 10.808c.761.899 1.307 2.119 2.732 2.119 1.444 0 1.99-1.22 2.752-2.119M791.361 12.906c-1.425 0-1.971-1.22-2.732-2.118M770.284 10.808c.761.899 1.308 2.119 2.732 2.119 1.425 0 1.972-1.22 2.733-2.119M714.919 288.792h-19.517c-3.474 0-6.284-3.082-6.284-6.891v-4.109h32.085v4.109c0 3.809-2.811 6.891-6.284 6.891ZM720.208 271.2h-30.094c-1.659 0-3.006 1.477-3.006 3.296 0 1.819 1.347 3.296 3.006 3.296h30.094c1.659 0 3.005-1.477 3.005-3.296 0-1.819-1.346-3.296-3.005-3.296ZM706.195 253.607h-2.069c-8.294 0-15.008 7.363-15.008 16.458v1.134h32.085v-1.134c0-9.095-6.714-16.458-15.008-16.458Z"/><path stroke="#1C186C" stroke-linecap="round" stroke-linejoin="round" stroke-width="4.64" d="M688.903 278.326c.761.899 1.308 2.119 2.733 2.119 1.424 0 1.971-1.22 2.732-2.119M707.229 278.326c.761.899 1.307 2.119 2.732 2.119 1.444 0 1.99-1.22 2.752-2.119M719.153 280.423c-1.425 0-1.971-1.219-2.732-2.118M698.075 278.326c.761.899 1.308 2.119 2.732 2.119 1.425 0 1.972-1.22 2.733-2.119"/></g></svg>